<svg width="800" height="800" viewBox="0 0 800 800" fill="none" xmlns="http://www.w3.org/2000/svg">
<path d="M267.25 800C340.804 800 400.5 740.267 400.5 666.667V533.333H267.25C193.696 533.333 134 593.067 134 666.667C134 740.267 193.696 800 267.25 800Z" fill="#0ACF83"/>
<path d="M134 400C134 326.4 193.696 266.667 267.25 266.667H400.5V533.333H267.25C193.696 533.333 134 473.6 134 400Z" fill="#A259FF"/>
<path d="M134 133.333C134 59.7333 193.696 0 267.25 0H400.5V266.667H267.25C193.696 266.667 134 206.933 134 133.333Z" fill="#F24E1E"/>
<path d="M400.5 0H533.75C607.304 0 667 59.7333 667 133.333C667 206.933 607.304 266.667 533.75 266.667L400.5 266.667V0Z" fill="#FF7262"/>
<path d="M667 400C667 473.6 607.304 533.333 533.75 533.333C460.196 533.333 400.5 473.6 400.5 400C400.5 326.4 460.196 266.667 533.75 266.667C607.304 266.667 667 326.4 667 400Z" fill="#1ABCFE"/>
</svg>
